<?xml version="1.0" encoding="UTF-8" standalone="no"?>
<!DOCTYPE svg PUBLIC "-//W3C//DTD SVG 1.1//EN"
 "http://www.w3.org/Graphics/SVG/1.1/DTD/svg11.dtd">
<!-- Generated by graphviz version 2.40.1 (20161225.0304)
 -->
<!-- Title: %3 Pages: 1 -->
<svg width="193pt" height="379pt"
 viewBox="0.00 0.00 193.42 379.30" xmlns="http://www.w3.org/2000/svg" xmlns:xlink="http://www.w3.org/1999/xlink">
<g id="graph0" class="graph" transform="scale(1 1) rotate(0) translate(4 375.3036)">
<title>%3</title>
<polygon fill="#ffffff" stroke="transparent" points="-4,4 -4,-375.3036 189.4186,-375.3036 189.4186,4 -4,4"/>
<!-- A -->
<g id="node1" class="node">
<title>A</title>
<polygon fill="#d3d3d3" stroke="#000000" points="95.4186,-371.3036 72.4186,-371.3036 72.4186,-353.3036 95.4186,-353.3036 95.4186,-371.3036"/>
<text text-anchor="middle" x="83.9186" y="-360.1036" font-family="Times,serif" font-size="9.00" fill="#000000">A</text>
</g>
<!-- 822 -->
<g id="node6" class="node">
<title>822</title>
<ellipse fill="#ffffff" stroke="#000000" cx="59.9186" cy="-296.0904" rx="21.4286" ry="21.4286"/>
<text text-anchor="middle" x="59.9186" y="-293.8904" font-family="Times,serif" font-size="9.00" fill="#000000">822</text>
</g>
<!-- A&#45;&gt;822 -->
<g id="edge5" class="edge">
<title>A&#45;&gt;822</title>
<path fill="none" stroke="#ff0000" stroke-width=".3198" d="M80.5815,-353.0969C77.9926,-345.9545 74.2519,-335.6343 70.6627,-325.7322"/>
<polygon fill="#ff0000" stroke="#ff0000" stroke-width=".3198" points="73.8706,-324.3113 67.1723,-316.1025 67.2896,-326.6967 73.8706,-324.3113"/>
</g>
<!-- 606 -->
<g id="node7" class="node">
<title>606</title>
<ellipse fill="#ffffff" stroke="#000000" cx="126.9186" cy="-132.1665" rx="21.4286" ry="21.4286"/>
<text text-anchor="middle" x="126.9186" y="-129.9665" font-family="Times,serif" font-size="9.00" fill="#000000">606</text>
</g>
<!-- A&#45;&gt;606 -->
<g id="edge2" class="edge">
<title>A&#45;&gt;606</title>
<path fill="none" stroke="#ff0000" stroke-width=".6533" d="M85.6043,-353.282C91.4853,-321.8065 111.2736,-215.899 121.1752,-162.9052"/>
<polygon fill="#ff0000" stroke="#ff0000" stroke-width=".6533" points="124.6204,-163.5225 123.0167,-153.0497 117.7395,-162.2367 124.6204,-163.5225"/>
</g>
<!-- B -->
<g id="node2" class="node">
<title>B</title>
<polygon fill="#d3d3d3" stroke="#000000" points="185.4186,-223.1285 162.4186,-223.1285 162.4186,-205.1285 185.4186,-205.1285 185.4186,-223.1285"/>
<text text-anchor="middle" x="173.9186" y="-211.9285" font-family="Times,serif" font-size="9.00" fill="#000000">B</text>
</g>
<!-- A XOR B -->
<g id="node3" class="node">
<title>A XOR B</title>
<ellipse fill="#add8e6" stroke="#000000" cx="96.9186" cy="-37.4767" rx="37.4533" ry="37.4533"/>
<text text-anchor="middle" x="96.9186" y="-35.2767" font-family="Times,serif" font-size="9.00" fill="#000000">A XOR B</text>
</g>
<!-- B&#45;&gt;A XOR B -->
<g id="edge1" class="edge">
<title>B&#45;&gt;A XOR B</title>
<path fill="none" stroke="#ff0000" stroke-width=".5136" d="M173.9674,-205.1268C173.7461,-186.6344 171.5584,-143.3836 156.9186,-110.9533 150.5321,-96.8059 140.7155,-83.1162 130.8601,-71.4649"/>
<polygon fill="#ff0000" stroke="#ff0000" stroke-width=".5136" points="133.3037,-68.9435 124.0726,-63.7436 128.0463,-73.5651 133.3037,-68.9435"/>
</g>
<!-- B&#45;&gt;606 -->
<g id="edge4" class="edge">
<title>B&#45;&gt;606</title>
<path fill="none" stroke="#ff0000" stroke-width=".8671" d="M168.7092,-205.0439C162.4757,-194.1735 151.7487,-175.467 142.7237,-159.7286"/>
<polygon fill="#ff0000" stroke="#ff0000" stroke-width=".8671" points="145.6643,-157.8206 137.6535,-150.8868 139.5918,-161.3028 145.6643,-157.8206"/>
</g>
<!-- 1541 -->
<g id="node4" class="node">
<title>1541</title>
<ellipse fill="#ffffff" stroke="#000000" cx="38.9186" cy="-214.1285" rx="25" ry="25"/>
<text text-anchor="middle" x="38.9186" y="-211.9285" font-family="Times,serif" font-size="9.00" fill="#000000">1541</text>
</g>
<!-- 915 -->
<g id="node5" class="node">
<title>915</title>
<ellipse fill="#ffffff" stroke="#000000" cx="66.9186" cy="-132.1665" rx="21.4286" ry="21.4286"/>
<text text-anchor="middle" x="66.9186" y="-129.9665" font-family="Times,serif" font-size="9.00" fill="#000000">915</text>
</g>
<!-- 1541&#45;&gt;915 -->
<g id="edge10" class="edge">
<title>1541&#45;&gt;915</title>
<path fill="none" stroke="#00ff00" stroke-width=".5004" d="M47.0174,-190.4217C50.0301,-181.6028 53.4891,-171.4776 56.6693,-162.1684"/>
<polygon fill="#00ff00" stroke="#00ff00" stroke-width=".5004" points="60.0557,-163.0822 59.9765,-152.4876 53.4316,-160.8192 60.0557,-163.0822"/>
</g>
<!-- 915&#45;&gt;A XOR B -->
<g id="edge8" class="edge">
<title>915&#45;&gt;A XOR B</title>
<path fill="none" stroke="#00ff00" stroke-width=".58" d="M73.4282,-111.6202C76.1184,-103.129 79.3519,-92.923 82.5473,-82.8373"/>
<polygon fill="#00ff00" stroke="#00ff00" stroke-width=".58" points="85.8964,-83.8544 85.5802,-73.2643 79.2233,-81.7402 85.8964,-83.8544"/>
</g>
<!-- 822&#45;&gt;A XOR B -->
<g id="edge6" class="edge">
<title>822&#45;&gt;A XOR B</title>
<path fill="none" stroke="#00ff00" stroke-width=".1278" stroke-dasharray="1,5" d="M42.3434,-283.8138C29.2655,-273.522 12.4331,-257.5371 4.9186,-238.8772 -3.2992,-218.4709 .684,-210.9672 4.9186,-189.3797 12.1653,-152.4377 17.6898,-143.3181 36.9186,-110.9533 44.7786,-97.7238 54.8941,-84.3631 64.5714,-72.7295"/>
<polygon fill="#00ff00" stroke="#00ff00" stroke-width=".1278" points="67.3549,-74.8591 71.168,-64.9742 62.0229,-70.3237 67.3549,-74.8591"/>
</g>
<!-- 822&#45;&gt;1541 -->
<g id="edge9" class="edge">
<title>822&#45;&gt;1541</title>
<path fill="none" stroke="#00ff00" stroke-width=".3" d="M54.6194,-275.4079C52.4957,-267.1193 49.9923,-257.3485 47.6159,-248.0735"/>
<polygon fill="#00ff00" stroke="#00ff00" stroke-width=".3" points="50.9836,-247.1155 45.111,-238.2972 44.2026,-248.853 50.9836,-247.1155"/>
</g>
<!-- 822&#45;&gt;915 -->
<g id="edge7" class="edge">
<title>822&#45;&gt;915</title>
<path fill="none" stroke="#00ff00" stroke-width=".2867" stroke-dasharray="1,5" d="M65.7366,-275.6247C68.5158,-264.7994 71.5332,-251.2267 72.9186,-238.8772 75.75,-213.6378 73.8384,-184.8824 71.4464,-163.586"/>
<polygon fill="#00ff00" stroke="#00ff00" stroke-width=".2867" points="74.8992,-162.9859 70.2133,-153.4836 67.9507,-163.834 74.8992,-162.9859"/>
</g>
<!-- 606&#45;&gt;A XOR B -->
<g id="edge3" class="edge">
<title>606&#45;&gt;A XOR B</title>
<path fill="none" stroke="#ff0000" stroke-width="1.1572" d="M120.4091,-111.6202C117.7188,-103.129 114.4853,-92.923 111.29,-82.8373"/>
<polygon fill="#ff0000" stroke="#ff0000" stroke-width="1.1572" points="114.6139,-81.7402 108.257,-73.2643 107.9408,-83.8544 114.6139,-81.7402"/>
</g>
</g>
</svg>
